<svg width="74" height="120" viewBox="0 0 74 120" fill="none" xmlns="http://www.w3.org/2000/svg">
<g clip-path="url(#clip0_2144_1319)">
<path d="M0.685418 115.544C0.813938 115.544 0.985298 115.501 1.15666 115.501C1.32802 115.501 1.54222 115.501 1.71358 115.501C2.4847 115.501 3.04162 115.672 3.38434 116.058C3.7699 116.444 3.94126 117.001 3.94126 117.686C3.94126 118.414 3.7699 118.971 3.38434 119.357C2.99878 119.7 2.44186 119.914 1.67074 119.914C1.49938 119.914 1.28518 119.914 1.11382 119.914C0.942458 119.914 0.771098 119.871 0.642578 119.871V115.544H0.685418ZM1.28518 119.314C1.32802 119.314 1.4137 119.314 1.49938 119.357C1.58506 119.357 1.67074 119.357 1.75642 119.357C2.01346 119.357 2.18482 119.314 2.39902 119.271C2.61322 119.228 2.74174 119.143 2.9131 119.014C3.04162 118.886 3.17014 118.714 3.25582 118.5C3.3415 118.286 3.38434 118.029 3.38434 117.686C3.38434 117.386 3.3415 117.129 3.25582 116.915C3.17014 116.701 3.08446 116.529 2.95594 116.401C2.82742 116.272 2.65606 116.187 2.4847 116.101C2.31334 116.058 2.09914 116.015 1.8421 116.015C1.75642 116.015 1.67074 116.015 1.58506 116.015C1.49938 116.015 1.4137 116.015 1.32802 116.015V119.314H1.28518Z" fill="#59595B"/>
<path d="M6.38379 115.544C6.42663 115.544 6.46947 115.544 6.51231 115.544C6.55515 115.544 6.59799 115.544 6.68367 115.544C6.72651 115.544 6.76935 115.544 6.85503 115.544C6.89787 115.544 6.94071 115.544 6.98355 115.544V119.828C6.94071 119.828 6.89787 119.828 6.85503 119.828C6.81219 119.828 6.76935 119.828 6.68367 119.828C6.64083 119.828 6.59799 119.828 6.51231 119.828C6.46947 119.828 6.42663 119.828 6.38379 119.828V115.544Z" fill="#59595B"/>
<path d="M9.46764 119.186C9.59616 119.229 9.72468 119.272 9.89604 119.315C10.0246 119.357 10.1959 119.357 10.4101 119.357C10.7528 119.357 10.967 119.272 11.1384 119.143C11.3098 119.015 11.3954 118.843 11.3954 118.586C11.3954 118.458 11.3954 118.372 11.3526 118.286C11.3098 118.201 11.2669 118.158 11.1812 118.072C11.0956 118.029 11.0099 117.944 10.9242 117.901C10.8385 117.858 10.71 117.815 10.5815 117.729L10.2388 117.601C10.1102 117.558 10.0246 117.515 9.93889 117.43C9.85321 117.387 9.76752 117.301 9.68184 117.215C9.59616 117.13 9.55333 117.044 9.51049 116.915C9.46765 116.787 9.46764 116.658 9.46764 116.53C9.46764 116.187 9.59616 115.887 9.8532 115.673C10.1102 115.459 10.453 115.373 10.8814 115.373C11.0527 115.373 11.2669 115.373 11.4383 115.416C11.6096 115.459 11.781 115.502 11.9095 115.545C11.9095 115.716 11.8667 115.887 11.781 116.059C11.6525 116.016 11.5668 115.973 11.3954 115.93C11.2669 115.887 11.0956 115.887 10.9242 115.887C10.6672 115.887 10.4958 115.93 10.3673 116.059C10.2388 116.144 10.1531 116.316 10.1531 116.53C10.1531 116.616 10.1531 116.701 10.1959 116.744C10.2388 116.83 10.2816 116.873 10.3244 116.915C10.3673 116.958 10.453 117.001 10.5386 117.044C10.6243 117.087 10.71 117.13 10.7957 117.173L11.1384 117.301C11.3098 117.387 11.4383 117.43 11.5668 117.515C11.6953 117.601 11.781 117.644 11.8667 117.772C11.9524 117.858 12.038 117.987 12.0809 118.115C12.1237 118.244 12.1666 118.372 12.1666 118.543C12.1666 118.972 12.038 119.272 11.7382 119.529C11.4383 119.743 11.0527 119.872 10.5386 119.872C10.4101 119.872 10.3244 119.872 10.1959 119.872C10.1102 119.872 10.0246 119.872 9.93889 119.829C9.85321 119.829 9.76752 119.786 9.68184 119.786C9.59616 119.743 9.51048 119.743 9.4248 119.7C9.4248 119.615 9.46764 119.529 9.46764 119.443C9.4248 119.357 9.4248 119.272 9.46764 119.186Z" fill="#59595B"/>
<path d="M15.1217 116.058H14.0078C14.0078 116.015 14.0078 115.972 14.0078 115.93C14.0078 115.887 14.0078 115.844 14.0078 115.801C14.0078 115.758 14.0078 115.715 14.0078 115.673C14.0078 115.63 14.0078 115.587 14.0078 115.544H16.8352C16.8352 115.587 16.8352 115.63 16.8352 115.673C16.8352 115.715 16.8352 115.758 16.8352 115.801C16.8352 115.844 16.8352 115.887 16.8352 115.93C16.8352 115.972 16.8352 116.015 16.8352 116.058H15.7214V119.828C15.6357 119.828 15.5501 119.828 15.4215 119.828C15.293 119.828 15.2073 119.828 15.1217 119.828V116.058Z" fill="#59595B"/>
<path d="M19.0642 115.544C19.1499 115.544 19.2356 115.544 19.3212 115.501C19.4069 115.501 19.4498 115.501 19.5354 115.501C19.6211 115.501 19.664 115.501 19.7496 115.501C19.8353 115.501 19.921 115.501 20.0067 115.501C20.2209 115.501 20.3922 115.501 20.6064 115.544C20.8206 115.587 20.992 115.672 21.1205 115.758C21.2919 115.844 21.4204 115.972 21.5061 116.144C21.5918 116.315 21.6346 116.529 21.6346 116.786C21.6346 116.958 21.5918 117.086 21.5489 117.215C21.5061 117.343 21.4204 117.472 21.3347 117.558C21.249 117.643 21.1634 117.729 21.0777 117.815C20.992 117.9 20.8635 117.943 20.7778 117.986L20.6921 118.029L21.9345 119.828C21.806 119.828 21.7203 119.828 21.5918 119.828C21.4632 119.828 21.3776 119.828 21.249 119.828L19.8782 117.857V117.815H19.921C20.0495 117.772 20.1352 117.729 20.2637 117.686C20.3922 117.643 20.4779 117.557 20.6064 117.515C20.6921 117.429 20.7778 117.343 20.8635 117.215C20.9492 117.086 20.9492 116.958 20.9492 116.829C20.9492 116.529 20.8635 116.315 20.6921 116.187C20.5208 116.058 20.3066 115.972 20.0067 115.972C19.921 115.972 19.8782 115.972 19.8353 115.972C19.7925 115.972 19.7068 115.972 19.6211 115.972V119.785C19.5783 119.785 19.5354 119.785 19.4926 119.785C19.4498 119.785 19.4069 119.785 19.3212 119.785C19.2784 119.785 19.2356 119.785 19.1499 119.785C19.107 119.785 19.0214 119.785 18.9785 119.785V115.544H19.0642Z" fill="#59595B"/>
<path d="M24.1621 115.544C24.2049 115.544 24.2478 115.544 24.2906 115.544C24.3335 115.544 24.3763 115.544 24.462 115.544C24.5048 115.544 24.5477 115.544 24.6334 115.544C24.6762 115.544 24.719 115.544 24.7619 115.544V119.828C24.719 119.828 24.6762 119.828 24.6334 119.828C24.5905 119.828 24.5477 119.828 24.462 119.828C24.4192 119.828 24.3763 119.828 24.2906 119.828C24.2478 119.828 24.2049 119.828 24.1621 119.828V115.544Z" fill="#59595B"/>
<path d="M28.1031 116.058H26.9893C26.9893 116.015 26.9893 115.972 26.9893 115.93C26.9893 115.887 26.9893 115.844 26.9893 115.801C26.9893 115.758 26.9893 115.715 26.9893 115.673C26.9893 115.63 26.9893 115.587 26.9893 115.544H29.8167C29.8167 115.587 29.8167 115.63 29.8167 115.673C29.8167 115.715 29.8167 115.758 29.8167 115.801C29.8167 115.844 29.8167 115.887 29.8167 115.93C29.8167 115.972 29.8167 116.015 29.8167 116.058H28.7029V119.828C28.6172 119.828 28.5315 119.828 28.403 119.828C28.2745 119.828 28.1888 119.828 28.1031 119.828V116.058Z" fill="#59595B"/>
<path d="M33.5003 119.915C33.2004 119.915 32.9006 119.872 32.6864 119.743C32.4722 119.615 32.258 119.486 32.1294 119.272C32.0009 119.058 31.8724 118.844 31.7867 118.587C31.701 118.33 31.6582 118.03 31.6582 117.687C31.6582 117.344 31.701 117.087 31.7867 116.787C31.8724 116.53 31.9581 116.273 32.1294 116.102C32.258 115.888 32.4722 115.759 32.6864 115.63C32.9006 115.502 33.2004 115.459 33.5003 115.459C33.8002 115.459 34.0572 115.502 34.3143 115.63C34.5285 115.759 34.7427 115.888 34.8712 116.102C34.9997 116.316 35.1282 116.53 35.2139 116.787C35.2996 117.044 35.3424 117.344 35.3424 117.687C35.3424 117.987 35.2996 118.287 35.2139 118.587C35.1282 118.844 35.0426 119.101 34.8712 119.272C34.7427 119.486 34.5285 119.615 34.3143 119.743C34.0572 119.872 33.8002 119.915 33.5003 119.915ZM33.5003 119.401C33.7145 119.401 33.8859 119.358 34.0144 119.272C34.1429 119.186 34.2714 119.101 34.3571 118.929C34.4428 118.801 34.5285 118.587 34.5713 118.415C34.6142 118.201 34.657 117.987 34.657 117.73C34.657 117.473 34.6142 117.258 34.5713 117.044C34.5285 116.83 34.4428 116.659 34.3571 116.53C34.2714 116.402 34.1429 116.273 34.0144 116.187C33.8859 116.102 33.7145 116.059 33.5003 116.059C33.2861 116.059 33.1148 116.102 32.9862 116.187C32.8577 116.273 32.7292 116.359 32.6435 116.53C32.5578 116.659 32.4722 116.873 32.4293 117.044C32.3865 117.258 32.3436 117.473 32.3436 117.73C32.3436 117.987 32.3865 118.244 32.4293 118.415C32.4722 118.629 32.5578 118.801 32.6435 118.929C32.7292 119.058 32.8577 119.186 32.9862 119.272C33.1148 119.358 33.2861 119.401 33.5003 119.401Z" fill="#59595B"/>
<path d="M40.6973 115.544H42.925C42.925 115.587 42.925 115.63 42.925 115.673C42.925 115.715 42.925 115.758 42.925 115.801C42.925 115.844 42.925 115.887 42.925 115.93C42.925 115.972 42.925 116.015 42.925 116.058H41.297V117.301H42.6679C42.6679 117.343 42.6679 117.386 42.6679 117.429C42.6679 117.472 42.6679 117.515 42.6679 117.558C42.6679 117.6 42.6679 117.643 42.6679 117.686C42.6679 117.729 42.6679 117.772 42.6679 117.815H41.297V119.785C41.2542 119.785 41.2113 119.785 41.1685 119.785C41.1257 119.785 41.0828 119.785 40.9971 119.785C40.9543 119.785 40.9115 119.785 40.8258 119.785C40.7829 119.785 40.7401 119.785 40.6973 119.785V115.544Z" fill="#59595B"/>
<path d="M45.2383 115.544H47.5945C47.5945 115.63 47.5945 115.715 47.5945 115.801C47.5945 115.844 47.5945 115.887 47.5945 115.93C47.5945 115.972 47.5945 116.015 47.5945 116.058H45.838V117.301H47.2518C47.2518 117.343 47.2518 117.386 47.2518 117.429C47.2518 117.472 47.2518 117.515 47.2518 117.558C47.2518 117.6 47.2518 117.643 47.2518 117.686C47.2518 117.729 47.2518 117.772 47.2518 117.815H45.838V119.271H47.6373C47.6373 119.357 47.6373 119.443 47.6373 119.528C47.6373 119.571 47.6373 119.614 47.6373 119.657C47.6373 119.7 47.6373 119.743 47.6373 119.785H45.2383V115.544Z" fill="#59595B"/>
<path d="M49.994 115.544C50.1225 115.544 50.2939 115.501 50.4653 115.501C50.6366 115.501 50.8508 115.501 51.0222 115.501C51.7933 115.501 52.3502 115.672 52.6929 116.058C53.0785 116.444 53.2499 117.001 53.2499 117.686C53.2499 118.414 53.0785 118.971 52.6929 119.357C52.3074 119.7 51.7505 119.914 50.9793 119.914C50.808 119.914 50.5938 119.914 50.4224 119.914C50.2511 119.914 50.0797 119.871 49.9512 119.871V115.544H49.994ZM50.5938 119.314C50.6366 119.314 50.7223 119.314 50.808 119.314C50.8937 119.314 50.9793 119.314 51.065 119.314C51.2792 119.314 51.4934 119.271 51.7076 119.228C51.9218 119.186 52.0503 119.1 52.2217 118.971C52.3502 118.843 52.4787 118.671 52.5644 118.457C52.6501 118.243 52.6929 117.986 52.6929 117.643C52.6929 117.343 52.6501 117.086 52.5644 116.872C52.4787 116.658 52.3931 116.486 52.2645 116.358C52.136 116.229 51.9647 116.144 51.7933 116.058C51.6219 116.015 51.4077 115.972 51.1507 115.972C51.065 115.972 50.9793 115.972 50.8937 115.972C50.808 115.972 50.7223 115.972 50.6795 115.972V119.314H50.5938Z" fill="#59595B"/>
<path d="M55.7344 115.544H58.0906C58.0906 115.63 58.0906 115.715 58.0906 115.801C58.0906 115.844 58.0906 115.887 58.0906 115.93C58.0906 115.972 58.0906 116.015 58.0906 116.058H56.3341V117.301H57.7478C57.7478 117.343 57.7478 117.386 57.7478 117.429C57.7478 117.472 57.7478 117.515 57.7478 117.558C57.7478 117.6 57.7478 117.643 57.7478 117.686C57.7478 117.729 57.7478 117.772 57.7478 117.815H56.3341V119.271H58.1334C58.1334 119.357 58.1334 119.443 58.1334 119.528C58.1334 119.571 58.1334 119.614 58.1334 119.657C58.1334 119.7 58.1334 119.743 58.1334 119.785H55.7344V115.544Z" fill="#59595B"/>
<path d="M60.49 115.544C60.5757 115.544 60.6613 115.544 60.747 115.501C60.8327 115.501 60.8755 115.501 60.9612 115.501C61.0469 115.501 61.0897 115.501 61.1754 115.501C61.2611 115.501 61.3468 115.501 61.4325 115.501C61.6467 115.501 61.818 115.501 62.0322 115.544C62.2464 115.587 62.4178 115.672 62.5463 115.758C62.7177 115.844 62.8462 115.972 62.9319 116.144C63.0175 116.315 63.0604 116.529 63.0604 116.786C63.0604 116.958 63.0175 117.086 62.9747 117.215C62.9319 117.343 62.8462 117.472 62.7605 117.558C62.6748 117.643 62.5891 117.729 62.5035 117.815C62.4178 117.9 62.2893 117.943 62.2036 117.986L62.1179 118.029L63.3603 119.828C63.2317 119.828 63.1461 119.828 63.0175 119.828C62.889 119.828 62.8033 119.828 62.6748 119.828L61.3039 117.857V117.815H61.3468C61.4753 117.772 61.561 117.729 61.6895 117.686C61.818 117.643 61.9037 117.557 62.0322 117.515C62.1179 117.429 62.2036 117.343 62.2893 117.215C62.3749 117.086 62.3749 116.958 62.3749 116.829C62.3749 116.529 62.2893 116.315 62.1179 116.187C61.9465 116.058 61.7323 115.972 61.4325 115.972C61.3468 115.972 61.3039 115.972 61.2611 115.972C61.2183 115.972 61.1326 115.972 61.0469 115.972V119.785C61.0041 119.785 60.9612 119.785 60.9184 119.785C60.8755 119.785 60.8327 119.785 60.747 119.785C60.7042 119.785 60.6613 119.785 60.5757 119.785C60.5328 119.785 60.4471 119.785 60.4043 119.785V115.544H60.49Z" fill="#59595B"/>
<path d="M67.6876 118.843H66.0597L65.7598 119.828C65.7169 119.828 65.6741 119.828 65.5884 119.828C65.5456 119.828 65.5027 119.828 65.4171 119.828C65.3742 119.828 65.2885 119.828 65.2457 119.828C65.2029 119.828 65.16 119.828 65.1172 119.828L66.5309 115.544C66.5738 115.544 66.6594 115.544 66.7023 115.544C66.7451 115.544 66.8308 115.544 66.8736 115.544C66.9165 115.544 67.0022 115.544 67.045 115.544C67.0878 115.544 67.1735 115.544 67.2164 115.544L68.5872 119.828C68.5444 119.828 68.5016 119.828 68.4159 119.828C68.373 119.828 68.2874 119.828 68.2445 119.828C68.2017 119.828 68.1588 119.828 68.0732 119.828C68.0303 119.828 67.9875 119.828 67.9018 119.828L67.6876 118.843ZM66.231 118.329H67.5162L66.8736 116.144L66.231 118.329Z" fill="#59595B"/>
<path d="M70.8145 115.544C70.8573 115.544 70.9001 115.544 70.943 115.544C70.9858 115.544 71.0287 115.544 71.1143 115.544C71.1572 115.544 71.2 115.544 71.2857 115.544C71.3285 115.544 71.3714 115.544 71.4142 115.544V119.314H73.085C73.085 119.357 73.085 119.4 73.085 119.443C73.085 119.486 73.085 119.528 73.085 119.571C73.085 119.657 73.085 119.743 73.085 119.828H70.8145V115.544Z" fill="#59595B"/>
<path d="M0.257812 102.777C0.557692 102.734 0.857572 102.691 1.15745 102.691C1.45733 102.691 1.75721 102.734 2.05709 102.777V109.76H5.14157C5.18441 109.889 5.18441 110.017 5.18441 110.146C5.18441 110.274 5.18441 110.403 5.18441 110.489C5.18441 110.617 5.18441 110.746 5.18441 110.874C5.18441 111.003 5.14157 111.131 5.14157 111.26H0.257812V102.777Z" fill="#59595B"/>
<path d="M6.6416 102.777H11.7396C11.7824 103.034 11.8252 103.249 11.8252 103.506C11.8252 103.763 11.7824 104.02 11.7396 104.234H8.44088V106.076H11.0541C11.097 106.333 11.1398 106.59 11.1398 106.804C11.1398 107.062 11.097 107.319 11.0541 107.533H8.44088V109.761H11.8252C11.8681 110.018 11.9109 110.232 11.9109 110.489C11.9109 110.746 11.8681 111.003 11.8252 111.217H6.6416V102.777Z" fill="#59595B"/>
<path d="M18.5079 106.848C18.8077 106.805 19.1076 106.762 19.4075 106.762C19.7074 106.762 20.0073 106.805 20.3071 106.848V111.003C19.8787 111.132 19.4075 111.26 18.9363 111.303C18.465 111.346 18.0366 111.389 17.6939 111.389C16.9656 111.389 16.323 111.26 15.7661 111.046C15.2092 110.832 14.7379 110.532 14.3952 110.146C14.0097 109.761 13.7526 109.29 13.5813 108.776C13.4099 108.219 13.3242 107.662 13.3242 107.019C13.3242 106.376 13.4099 105.819 13.6241 105.263C13.7955 104.706 14.0953 104.277 14.4381 103.849C14.7808 103.463 15.252 103.163 15.7661 102.906C16.2802 102.692 16.8799 102.563 17.5654 102.563C17.9509 102.563 18.3365 102.606 18.6792 102.649C19.0219 102.692 19.3647 102.778 19.7502 102.949C19.7502 103.206 19.6645 103.42 19.6217 103.635C19.536 103.849 19.4503 104.063 19.3647 104.32C19.0648 104.234 18.8077 104.149 18.5935 104.106C18.3793 104.063 18.1223 104.063 17.7796 104.063C16.9656 104.063 16.3659 104.32 15.9375 104.791C15.5091 105.263 15.2949 106.034 15.2949 106.976C15.2949 107.962 15.5091 108.647 15.9375 109.161C16.3659 109.632 17.0085 109.889 17.8224 109.889C17.9509 109.889 18.0795 109.889 18.208 109.847C18.3365 109.847 18.4222 109.804 18.5079 109.804V106.848Z" fill="#59595B"/>
<path d="M22.1484 102.777C22.4483 102.734 22.7482 102.691 23.0481 102.691C23.348 102.691 23.6478 102.734 23.9906 102.777V111.26C23.6907 111.303 23.348 111.345 23.0909 111.345C22.791 111.345 22.4912 111.303 22.1484 111.26V102.777Z" fill="#59595B"/>
<path d="M27.6325 107.319C27.3326 107.233 27.0756 107.105 26.8614 106.976C26.6472 106.848 26.433 106.719 26.3045 106.548C26.1331 106.377 26.0046 106.162 25.9189 105.948C25.8332 105.691 25.7904 105.434 25.7904 105.091C25.7904 104.706 25.8761 104.32 26.0046 104.02C26.1331 103.72 26.3473 103.463 26.6043 103.249C26.8614 103.035 27.2041 102.863 27.5897 102.778C27.9752 102.649 28.4036 102.606 28.8749 102.606C29.3033 102.606 29.6888 102.649 30.0744 102.692C30.4599 102.778 30.8455 102.863 31.231 102.992C31.1882 103.463 31.0597 103.892 30.8455 104.32C30.717 104.277 30.5884 104.234 30.4599 104.192C30.3314 104.149 30.2029 104.106 30.0315 104.063C29.903 104.02 29.7317 104.02 29.5175 103.977C29.3461 103.977 29.1319 103.935 28.8749 103.935C28.7463 103.935 28.575 103.935 28.4465 103.977C28.3179 104.02 28.1894 104.063 28.0609 104.106C27.9324 104.149 27.8467 104.277 27.761 104.363C27.6753 104.491 27.6325 104.663 27.6325 104.834C27.6325 105.006 27.6753 105.134 27.7182 105.22C27.761 105.348 27.8467 105.434 27.9752 105.477C28.0609 105.563 28.1894 105.605 28.3179 105.648C28.4464 105.691 28.575 105.734 28.7035 105.777L29.4746 106.034C29.7745 106.162 30.0744 106.291 30.3314 106.419C30.5885 106.548 30.8027 106.719 30.974 106.891C31.1454 107.062 31.2739 107.319 31.4024 107.576C31.4881 107.833 31.5738 108.176 31.5738 108.561C31.5738 108.947 31.4881 109.333 31.3596 109.675C31.1882 110.018 30.974 110.275 30.6741 110.532C30.3742 110.789 30.0315 110.961 29.6031 111.089C29.1747 111.218 28.6606 111.303 28.1037 111.303C27.8467 111.303 27.5897 111.303 27.3755 111.26C27.1613 111.26 26.9471 111.218 26.7757 111.175C26.5615 111.132 26.3901 111.089 26.1759 111.046C25.9617 111.003 25.7904 110.918 25.5762 110.832C25.619 110.618 25.6619 110.361 25.7047 110.104C25.7904 109.847 25.8332 109.59 25.9617 109.333C26.3045 109.461 26.6472 109.59 26.9471 109.632C27.2469 109.718 27.5896 109.718 27.9324 109.718C28.4464 109.718 28.8748 109.632 29.1747 109.461C29.4746 109.29 29.646 108.99 29.646 108.604C29.646 108.433 29.6031 108.262 29.5603 108.133C29.4746 108.004 29.3889 107.919 29.3033 107.833C29.1747 107.747 29.0462 107.662 28.9177 107.619C28.7892 107.576 28.6178 107.49 28.4893 107.448L27.6325 107.319Z" fill="#59595B"/>
<path d="M33.1582 102.777C33.4581 102.734 33.758 102.691 34.0578 102.691C34.3577 102.691 34.6576 102.734 34.9575 102.777V109.76H38.0848C38.1276 109.889 38.1276 110.017 38.1276 110.146C38.1276 110.274 38.1276 110.403 38.1276 110.489C38.1276 110.617 38.1276 110.746 38.1276 110.874C38.1276 111.003 38.0848 111.131 38.0848 111.26H33.1582V102.777Z" fill="#59595B"/>
<path d="M41.6418 102.777C41.8131 102.734 41.9845 102.734 42.1558 102.734C42.3272 102.734 42.4986 102.734 42.6699 102.734C42.8413 102.734 43.0126 102.734 43.1412 102.734C43.3125 102.734 43.4839 102.777 43.6553 102.777L46.4827 111.26C46.14 111.303 45.7973 111.346 45.4974 111.346C45.1975 111.346 44.8548 111.303 44.5549 111.26L44.0408 109.546H41.042L40.5279 111.26C40.228 111.303 39.9282 111.346 39.6711 111.346C39.3712 111.346 39.0714 111.303 38.7715 111.26L41.6418 102.777ZM43.6553 108.132L42.6271 104.577L41.5561 108.132H43.6553Z" fill="#59595B"/>
<path d="M48.6249 104.234H46.3972C46.3544 103.977 46.3115 103.763 46.3115 103.506C46.3115 103.249 46.3544 103.034 46.3972 102.777H52.7375C52.7804 103.034 52.8232 103.249 52.8232 103.506C52.8232 103.763 52.7804 104.02 52.7375 104.234H50.5098V111.26C50.3813 111.26 50.21 111.303 50.0386 111.303C49.8672 111.303 49.7387 111.303 49.6102 111.303C49.4817 111.303 49.3103 111.303 49.139 111.303C48.9676 111.303 48.7962 111.26 48.6249 111.26V104.234Z" fill="#59595B"/>
<path d="M54.2363 102.777C54.5362 102.734 54.8361 102.691 55.136 102.691C55.4358 102.691 55.7357 102.734 56.0784 102.777V111.26C55.7786 111.303 55.4787 111.345 55.1788 111.345C54.8789 111.345 54.579 111.303 54.2363 111.26V102.777Z" fill="#59595B"/>
<path d="M57.3203 102.777C57.4488 102.777 57.6202 102.734 57.7915 102.734C57.9629 102.734 58.1343 102.691 58.2628 102.691C58.5627 102.691 58.9054 102.734 59.2481 102.777L61.2187 109.46L63.1894 102.777C63.3607 102.734 63.5321 102.734 63.6606 102.734C63.832 102.734 63.9605 102.734 64.1319 102.734C64.3032 102.734 64.4317 102.734 64.6031 102.734C64.7745 102.734 64.903 102.777 65.0743 102.777L62.1612 111.26C61.9899 111.303 61.8185 111.303 61.6471 111.303C61.4758 111.303 61.3044 111.303 61.1331 111.303C60.9617 111.303 60.7903 111.303 60.6618 111.303C60.4905 111.303 60.3191 111.26 60.1477 111.26L57.3203 102.777Z" fill="#59595B"/>
<path d="M67.9445 102.777C68.1159 102.734 68.2872 102.734 68.4586 102.734C68.6299 102.734 68.8013 102.734 68.9727 102.734C69.144 102.734 69.3154 102.734 69.4439 102.734C69.6153 102.734 69.7866 102.777 69.958 102.777L72.7854 111.26C72.4427 111.303 72.1 111.346 71.8001 111.346C71.5002 111.346 71.1575 111.303 70.8576 111.26L70.3435 109.546H67.3447L66.8307 111.26C66.5308 111.303 66.2309 111.346 65.9739 111.346C65.674 111.346 65.3741 111.303 65.0742 111.26L67.9445 102.777ZM69.958 108.132L68.9298 104.577L67.8588 108.132H69.958Z" fill="#59595B"/>
<path d="M17.6076 98.9644C17.7361 99.1786 17.8218 99.3928 17.8646 99.6499C17.9503 99.8641 17.9931 100.121 18.036 100.335C17.6076 100.464 17.222 100.592 16.8793 100.635C16.5366 100.678 16.151 100.721 15.7654 100.721C15.0372 100.721 14.4374 100.635 13.8805 100.378C13.3664 100.164 12.8952 99.8641 12.5524 99.4785C12.2097 99.0929 11.9098 98.6217 11.7385 98.1076C11.5671 97.5506 11.4814 96.9937 11.4814 96.351C11.4814 95.7084 11.5671 95.1515 11.7813 94.5945C11.9527 94.0376 12.2526 93.6092 12.5953 93.1808C12.938 92.7952 13.4092 92.4953 13.9233 92.2382C14.4374 92.024 15.0372 91.8955 15.7226 91.8955C16.1082 91.8955 16.4937 91.9383 16.8364 91.9812C17.1792 92.024 17.5219 92.1097 17.9503 92.2811C17.9503 92.5381 17.8646 92.7523 17.7789 92.9666C17.6932 93.1808 17.6076 93.4378 17.5219 93.652C17.222 93.5663 16.965 93.4807 16.7508 93.4378C16.5366 93.395 16.2795 93.395 15.9368 93.395C15.1228 93.395 14.5231 93.652 14.0947 94.1233C13.6663 94.5945 13.4521 95.3657 13.4521 96.3082C13.4521 98.2361 14.3089 99.1786 16.0653 99.1786C16.3652 99.1786 16.6651 99.1786 16.8793 99.1358C17.0506 99.1358 17.3077 99.0929 17.6076 98.9644Z" fill="#59595B"/>
<path d="M21.7199 92.1102C21.8913 92.0674 22.0626 92.0674 22.234 92.0674C22.4053 92.0674 22.5767 92.0674 22.7481 92.0674C22.9194 92.0674 23.0908 92.0674 23.2193 92.0674C23.3907 92.0674 23.562 92.1102 23.7334 92.1102L26.5608 100.593C26.2181 100.636 25.8754 100.679 25.5755 100.679C25.2756 100.679 24.9329 100.636 24.633 100.593L24.1189 98.8792H21.1201L20.6061 100.593C20.3062 100.636 20.0063 100.679 19.7492 100.679C19.4494 100.679 19.1495 100.636 18.8496 100.593L21.7199 92.1102ZM23.7334 97.4655L22.7052 93.9096L21.6342 97.4655H23.7334Z" fill="#59595B"/>
<path d="M28.1032 92.1101C28.4459 92.0673 28.7458 92.0244 29.0457 92.0244C29.3884 92.0244 29.6883 92.0673 29.9882 92.1101L32.0445 96.9941L34.1865 92.1101C34.4435 92.0673 34.7434 92.0244 35.0433 92.0244C35.3432 92.0244 35.6859 92.0673 35.9429 92.1101L36.3713 100.593C36.0714 100.636 35.7716 100.678 35.4717 100.678C35.1718 100.678 34.9148 100.636 34.6149 100.593L34.4007 94.8091L32.5586 98.7934C32.43 98.7934 32.3015 98.8363 32.2158 98.8363C32.0873 98.8363 31.9588 98.8363 31.8303 98.8363C31.7018 98.8363 31.6161 98.8363 31.4876 98.8363C31.359 98.8363 31.2734 98.7934 31.1448 98.7934L29.4312 94.7234L29.2599 100.593C29.0028 100.636 28.7458 100.678 28.4888 100.678C28.2317 100.678 27.9318 100.636 27.6748 100.593L28.1032 92.1101Z" fill="#59595B"/>
<path d="M40.4406 92.1102C40.612 92.0674 40.7833 92.0674 40.9547 92.0674C41.126 92.0674 41.2974 92.0674 41.4687 92.0674C41.6401 92.0674 41.8115 92.0674 41.94 92.0674C42.1113 92.0674 42.2827 92.1102 42.4541 92.1102L45.2815 100.593C44.9388 100.636 44.5961 100.679 44.2962 100.679C43.9963 100.679 43.6536 100.636 43.3537 100.593L42.8396 98.8792H39.8408L39.3268 100.593C39.0269 100.636 38.727 100.679 38.47 100.679C38.1701 100.679 37.8702 100.636 37.5703 100.593L40.4406 92.1102ZM42.4112 97.4655L41.3831 93.9096L40.3121 97.4655H42.4112Z" fill="#59595B"/>
<path d="M46.6104 92.1101C46.9959 92.0673 47.3386 92.0244 47.6385 92.0244C47.9384 91.9816 48.324 91.9816 48.7095 91.9816C49.1808 91.9816 49.6092 92.0244 50.0804 92.1101C50.5088 92.1958 50.9372 92.3243 51.2799 92.5385C51.6226 92.7527 51.9225 93.0098 52.1367 93.3525C52.3509 93.6952 52.4794 94.1237 52.4794 94.6378C52.4794 94.9377 52.4366 95.2376 52.3509 95.4518C52.2652 95.7088 52.1796 95.923 52.051 96.0944C51.9225 96.2658 51.794 96.4371 51.6226 96.5656C51.4513 96.6942 51.3228 96.7799 51.1942 96.8655L50.98 96.9941L53.1649 100.593C52.9935 100.593 52.8222 100.636 52.6508 100.636C52.4794 100.636 52.2652 100.678 52.0939 100.678C51.794 100.678 51.4513 100.636 51.1514 100.593L48.7952 96.6513L49.0951 96.5228C49.2236 96.48 49.3521 96.3943 49.5235 96.3086C49.6948 96.2229 49.8662 96.0944 49.9947 95.9659C50.1661 95.8373 50.2946 95.666 50.3803 95.4946C50.5088 95.3232 50.5516 95.109 50.5516 94.852C50.5516 94.3379 50.4231 93.9951 50.0804 93.7381C49.7805 93.5239 49.395 93.3954 48.9237 93.3954C48.7524 93.3954 48.581 93.3954 48.4096 93.4382V100.593C48.2811 100.593 48.1098 100.636 47.9812 100.636C47.8099 100.636 47.6814 100.636 47.5528 100.636C47.4243 100.636 47.253 100.636 47.0816 100.636C46.9102 100.636 46.7389 100.593 46.6104 100.593V92.1101Z" fill="#59595B"/>
<path d="M56.5491 92.1102C56.7205 92.0674 56.8918 92.0674 57.0632 92.0674C57.2346 92.0674 57.4059 92.0674 57.5773 92.0674C57.7486 92.0674 57.92 92.0674 58.0485 92.0674C58.2199 92.0674 58.3912 92.1102 58.5626 92.1102L61.39 100.593C61.0473 100.636 60.7046 100.679 60.4047 100.679C60.1048 100.679 59.7621 100.636 59.4622 100.593L58.9482 98.8792H55.9922L55.4781 100.593C55.1782 100.636 54.8784 100.679 54.6213 100.679C54.3214 100.679 54.0216 100.636 53.7217 100.593L56.5491 92.1102ZM58.5198 97.4655L57.4916 93.9096L56.4206 97.4655H58.5198Z" fill="#59595B"/>
<path d="M22.7484 90.8677C22.9626 90.8677 23.0911 91.1248 23.134 91.2105C23.4767 91.2105 23.8194 91.2533 24.2478 91.2533C24.2478 91.2533 23.7337 90.0537 22.7484 90.0537C21.7631 90.0537 21.249 91.2533 21.249 91.2533C21.6774 91.2105 22.0201 91.2105 22.3629 91.2105C22.4057 91.1248 22.5342 90.8677 22.7484 90.8677Z" fill="#59595B"/>
<path d="M32.1729 69.875V85.6408L32.6441 85.4266V69.5322L32.1729 69.875Z" fill="#F2CA30"/>
<path d="M32.1729 80.9282L32.6441 80.7568V85.4266L32.1729 85.6408V80.9282Z" fill="#2E914E"/>
<path d="M6.12598 66.8332V64.177C16.9217 67.0046 27.3318 74.8875 32.2155 80.9282V85.6408C25.661 77.458 16.4504 70.9032 7.02562 67.8186C6.59722 67.69 6.12598 67.4758 6.12598 66.8332Z" fill="url(#paint0_linear_2144_1319)"/>
<path d="M32.1735 69.8751C31.9593 69.618 31.7451 69.4038 31.4881 69.1468C30.5456 68.1614 29.4746 67.1332 28.3608 66.1478C19.3644 58.4363 7.84042 54.9233 6.08398 54.4092V64.1771C16.8797 67.0047 27.2898 74.8876 32.1735 80.9283V69.8751Z" fill="url(#paint1_linear_2144_1319)"/>
<path d="M28.3608 66.1906C29.4746 67.176 30.5456 68.1614 31.4881 69.1896C31.7023 69.4038 31.9165 69.6608 32.1307 69.8751L32.6019 69.5323C23.9483 59.9357 11.2248 55.4802 6.46954 54.0664L6.08398 54.452C7.84042 54.9232 19.4072 58.4791 28.3608 66.1906Z" fill="#FFF583"/>
<path d="M40.9127 69.875V85.6408L40.4842 85.4266L40.4414 69.5322L40.9127 69.875Z" fill="#F2CA30"/>
<path d="M40.9117 80.9282L40.4404 80.7568L40.4833 85.4266L40.9117 85.6408V80.9282Z" fill="#2E914E"/>
<path d="M67.0017 66.8332V64.177C56.206 67.0046 45.7959 74.8875 40.9121 80.9282V85.6408C47.4666 77.458 56.6772 70.9032 66.102 67.8186C66.4876 67.69 66.9588 67.4758 67.0017 66.8332Z" fill="url(#paint2_linear_2144_1319)"/>
<path d="M40.9121 69.8751C41.1263 69.618 41.3405 69.4038 41.5975 69.1468C42.54 68.1614 43.611 67.1332 44.7249 66.1478C53.7213 58.4363 65.2452 54.9233 67.0017 54.4092V64.1771C56.206 67.0047 45.7959 74.8876 40.9121 80.9283V69.8751Z" fill="url(#paint3_linear_2144_1319)"/>
<path d="M44.7246 66.1906C43.6107 67.176 42.5397 68.1614 41.5972 69.1896C41.383 69.4038 41.1688 69.6608 40.9546 69.8751L40.4834 69.5323C49.1371 59.9357 61.8606 55.4802 66.6158 54.0664L67.0014 54.452C65.2449 54.9232 53.6781 58.4791 44.7246 66.1906Z" fill="#FFF583"/>
<path d="M66.6162 54.0667C66.6162 54.0667 45.3248 36.6729 36.5854 0.428711C27.7604 36.6729 6.51172 54.0667 6.51172 54.0667C8.7394 54.7522 12.7664 56.0803 17.3074 58.308C24.5474 50.8107 31.6588 42.1995 36.5854 29.9467C41.512 42.1995 48.5806 50.7679 55.8634 58.308C60.3188 56.0803 64.3457 54.7522 66.6162 54.0667Z" fill="url(#paint4_radial_2144_1319)"/>
<path opacity="0.5" d="M6.51172 54.0664C8.7394 54.7519 12.7664 56.08 17.3074 58.3078L18.6354 56.894C12.4665 54.0664 6.51172 54.0664 6.51172 54.0664Z" fill="url(#paint5_radial_2144_1319)"/>
<path opacity="0.5" d="M66.6159 54.0664C64.3882 54.7519 60.3613 56.08 55.8202 58.3078L54.4922 56.894C60.6611 54.0664 66.6159 54.0664 66.6159 54.0664Z" fill="url(#paint6_radial_2144_1319)"/>
</g>
<defs>
<linearGradient id="paint0_linear_2144_1319" x1="32.1817" y1="74.9136" x2="6.10875" y2="74.9136" gradientUnits="userSpaceOnUse">
<stop stop-color="#7BB752"/>
<stop offset="0.0467569" stop-color="#6DAC4F"/>
<stop offset="0.181" stop-color="#4F984B"/>
<stop offset="0.314" stop-color="#398B48"/>
<stop offset="0.4442" stop-color="#2C8446"/>
<stop offset="0.5681" stop-color="#288145"/>
<stop offset="0.9386" stop-color="#B8D484"/>
<stop offset="0.945" stop-color="#B3D181"/>
<stop offset="0.9539" stop-color="#A6CB78"/>
<stop offset="0.9643" stop-color="#91C169"/>
<stop offset="0.9757" stop-color="#74B559"/>
<stop offset="0.9805" stop-color="#64B054"/>
</linearGradient>
<linearGradient id="paint1_linear_2144_1319" x1="32.2498" y1="67.6819" x2="5.93413" y2="67.6819" gradientUnits="userSpaceOnUse">
<stop stop-color="#FDE62F"/>
<stop offset="0.00538713" stop-color="#FDE62F"/>
<stop offset="0.0583658" stop-color="#FDE62F"/>
<stop offset="0.1049" stop-color="#F9DA30"/>
<stop offset="0.1896" stop-color="#F3CB30"/>
<stop offset="0.2833" stop-color="#EFC031"/>
<stop offset="0.3924" stop-color="#ECB931"/>
<stop offset="0.5525" stop-color="#ECB731"/>
<stop offset="0.9455" stop-color="#FFF68B"/>
<stop offset="0.9844" stop-color="#F6D330"/>
</linearGradient>
<linearGradient id="paint2_linear_2144_1319" x1="40.9135" y1="74.9136" x2="66.9873" y2="74.9136" gradientUnits="userSpaceOnUse">
<stop stop-color="#7BB752"/>
<stop offset="0.0467569" stop-color="#6DAC4F"/>
<stop offset="0.181" stop-color="#4F984B"/>
<stop offset="0.314" stop-color="#398B48"/>
<stop offset="0.4442" stop-color="#2C8446"/>
<stop offset="0.5681" stop-color="#288145"/>
<stop offset="0.9386" stop-color="#B8D484"/>
<stop offset="0.945" stop-color="#B3D181"/>
<stop offset="0.9539" stop-color="#A6CB78"/>
<stop offset="0.9643" stop-color="#91C169"/>
<stop offset="0.9757" stop-color="#74B559"/>
<stop offset="0.9805" stop-color="#64B054"/>
</linearGradient>
<linearGradient id="paint3_linear_2144_1319" x1="40.8464" y1="67.6819" x2="67.1627" y2="67.6819" gradientUnits="userSpaceOnUse">
<stop stop-color="#FDE62F"/>
<stop offset="0.00538713" stop-color="#FDE62F"/>
<stop offset="0.0583658" stop-color="#FDE62F"/>
<stop offset="0.1049" stop-color="#F9DA30"/>
<stop offset="0.1896" stop-color="#F3CB30"/>
<stop offset="0.2833" stop-color="#EFC031"/>
<stop offset="0.3924" stop-color="#ECB931"/>
<stop offset="0.5525" stop-color="#ECB731"/>
<stop offset="0.9455" stop-color="#FFF68B"/>
<stop offset="0.9844" stop-color="#F6D330"/>
</linearGradient>
<radialGradient id="paint4_radial_2144_1319" cx="0" cy="0" r="1" gradientUnits="userSpaceOnUse" gradientTransform="translate(36.7502 3.32485) scale(69.2978 69.3008)">
<stop stop-color="#F9DC30"/>
<stop offset="0.642" stop-color="#EFC031"/>
<stop offset="0.6987" stop-color="#EEBD31"/>
<stop offset="0.7686" stop-color="#EAB131"/>
<stop offset="0.8455" stop-color="#E49F30"/>
<stop offset="0.9268" stop-color="#DD872E"/>
<stop offset="0.9755" stop-color="#D9762D"/>
</radialGradient>
<radialGradient id="paint5_radial_2144_1319" cx="0" cy="0" r="1" gradientUnits="userSpaceOnUse" gradientTransform="translate(12.5931 54.2759) scale(8.02828 8.02865)">
<stop stop-color="#F9DC30"/>
<stop offset="0.642" stop-color="#EFC031"/>
<stop offset="0.6987" stop-color="#EEBD31"/>
<stop offset="0.7686" stop-color="#EAB131"/>
<stop offset="0.8455" stop-color="#E49F30"/>
<stop offset="0.9268" stop-color="#DD872E"/>
<stop offset="0.9755" stop-color="#D9762D"/>
</radialGradient>
<radialGradient id="paint6_radial_2144_1319" cx="0" cy="0" r="1" gradientUnits="userSpaceOnUse" gradientTransform="translate(60.5024 54.2759) rotate(180) scale(8.02816 8.02853)">
<stop stop-color="#F9DC30"/>
<stop offset="0.642" stop-color="#EFC031"/>
<stop offset="0.6987" stop-color="#EEBD31"/>
<stop offset="0.7686" stop-color="#EAB131"/>
<stop offset="0.8455" stop-color="#E49F30"/>
<stop offset="0.9268" stop-color="#DD872E"/>
<stop offset="0.9755" stop-color="#D9762D"/>
</radialGradient>
<clipPath id="clip0_2144_1319">
<rect width="73.1707" height="120" fill="white"/>
</clipPath>
</defs>
</svg>
